PathFileType	4	(X/Y/Z)	C:\Users\86182\Documents\cortex\Trimmed_M4_H16.trc
DataRate	CameraRate	NumFrames	NumMarkers	Units	OrigDataRate	OrigDataStartFrame	OrigNumFrames
100.00	100.00	       112	2	mm	100.00	721	       901
Frame#	Time	gripper			box			
		X1	Y1	Z1	X2	Y2	Z2	

721	7.200	276.16122	151.11771	292.25360	278.01889	147.82770	156.66493	
722	7.210	276.15820	151.11876	292.25391	278.01996	147.82748	156.66589	
723	7.220	276.15561	151.11987	292.25375	278.01981	147.82739	156.66541	
724	7.230	276.15427	151.12080	292.25299	278.01788	147.82793	156.66327	
725	7.240	276.15439	151.12138	292.25174	278.01474	147.82904	156.65987	
726	7.250	276.15561	151.12157	292.25043	278.01166	147.83028	156.65601	
727	7.260	276.15726	151.12140	292.24942	278.00977	147.83113	156.65277	
728	7.270	276.15869	151.12102	292.24908	278.00970	147.83136	156.65131	
729	7.280	276.15955	151.12045	292.24951	278.01147	147.83101	156.65233	
730	7.290	276.15991	151.11971	292.25070	278.01474	147.83006	156.65570	
731	7.300	276.16010	151.11874	292.25247	278.01895	147.82854	156.66064	
732	7.310	276.16034	151.11763	292.25449	278.02338	147.82660	156.66599	
733	7.320	276.16080	151.11653	292.25629	278.02744	147.82455	156.67053	
734	7.330	276.16141	151.11566	292.25751	278.03088	147.82268	156.67349	
735	7.340	276.16217	151.11519	292.25784	278.03345	147.82121	156.67450	
736	7.350	276.16296	151.11522	292.25720	278.03485	147.82034	156.67358	
737	7.360	276.16373	151.11566	292.25571	278.03470	147.82030	156.67087	
738	7.370	276.16455	151.11632	292.25372	278.03281	147.82127	156.66690	
739	7.380	276.16553	151.11697	292.25165	278.02945	147.82324	156.66257	
740	7.390	276.16660	151.11749	292.24979	278.02570	147.82556	156.65894	
741	7.400	276.16742	151.11777	292.24857	278.02277	147.82736	156.65652	
742	7.410	276.16779	151.11786	292.24811	278.02161	147.82805	156.65518	
743	7.420	276.16757	151.11781	292.24835	278.02264	147.82751	156.65445	
744	7.430	276.16672	151.11772	292.24921	278.02563	147.82607	156.65408	
745	7.440	276.16528	151.11772	292.25034	278.02985	147.82397	156.65405	
746	7.450	276.16339	151.11797	292.25137	278.03473	147.82138	156.65472	
747	7.460	276.16132	151.11844	292.25208	278.03970	147.81839	156.65652	
748	7.470	276.15955	151.11900	292.25238	278.04404	147.81537	156.65970	
749	7.480	276.15857	151.11942	292.25232	278.04700	147.81284	156.66376	
750	7.490	276.15863	151.11954	292.25201	278.04813	147.81123	156.66763	
751	7.500	276.15982	151.11931	292.25153	278.04736	147.81076	156.67014	
752	7.510	276.16187	151.11885	292.25082	278.04501	147.81145	156.67068	
753	7.520	276.16428	151.11832	292.24997	278.04147	147.81319	156.66937	
754	7.530	276.16663	151.11783	292.24908	278.03720	147.81575	156.66675	
755	7.540	276.16849	151.11743	292.24841	278.03281	147.81874	156.66360	
756	7.550	276.16968	151.11716	292.24802	278.02881	147.82167	156.66069	
757	7.560	276.17004	151.11699	292.24805	278.02560	147.82401	156.65823	
758	7.570	276.16959	151.11697	292.24844	278.02328	147.82530	156.65591	
759	7.580	276.16821	151.11710	292.24927	278.02170	147.82541	156.65332	
760	7.590	276.16602	151.11737	292.25049	278.02045	147.82451	156.65059	
761	7.600	276.16309	151.11778	292.25195	278.01917	147.82312	156.64810	
762	7.610	276.15973	151.11826	292.25366	278.01779	147.82173	156.64624	
763	7.620	276.15628	151.11873	292.25543	278.01678	147.82051	156.64517	
764	7.630	276.15317	151.11911	292.25711	278.01678	147.81934	156.64455	
765	7.640	276.15100	151.11929	292.25848	278.01813	147.81815	156.64392	
766	7.650	276.15033	151.11914	292.25928	278.02014	147.81714	156.64331	
767	7.660	276.15131	151.11865	292.25949	278.02197	147.81651	156.64310	
768	7.670	276.15369	151.11794	292.25906	278.02328	147.81602	156.64319	
769	7.680	276.15689	151.11720	292.25800	278.02423	147.81534	156.64325	
770	7.690	276.16010	151.11667	292.25656	278.02524	147.81429	156.64328	
771	7.700	276.16263	151.11641	292.25507	278.02652	147.81303	156.64410	
772	7.710	276.16400	151.11641	292.25397	278.02792	147.81190	156.64639	
773	7.720	276.16412	151.11664	292.25345	278.02890	147.81114	156.65007	
774	7.730	276.16306	151.11699	292.25360	278.02899	147.81081	156.65445	
775	7.740	276.16113	151.11746	292.25418	278.02805	147.81100	156.65894	
776	7.750	276.15878	151.11801	292.25494	278.02603	147.81206	156.66330	
777	7.760	276.15619	151.11870	292.25565	278.02286	147.81418	156.66740	
778	7.770	276.15353	151.11946	292.25623	278.01886	147.81720	156.67081	
779	7.780	276.15094	151.12024	292.25674	278.01459	147.82051	156.67279	
780	7.790	276.14874	151.12088	292.25720	278.01068	147.82356	156.67291	
781	7.800	276.14746	151.12122	292.25757	278.00757	147.82610	156.67130	
782	7.810	276.14749	151.12117	292.25763	278.00543	147.82805	156.66861	
783	7.820	276.14868	151.12085	292.25732	278.00449	147.82947	156.66571	
784	7.830	276.15067	151.12039	292.25665	278.00507	147.83026	156.66345	
785	7.840	276.15311	151.11995	292.25558	278.00757	147.83029	156.66234	
786	7.850	276.15598	151.11952	292.25415	278.01227	147.82936	156.66232	
787	7.860	276.15915	151.11909	292.25247	278.01907	147.82736	156.66281	
788	7.870	276.16226	151.11865	292.25089	278.02753	147.82430	156.66333	
789	7.880	276.16501	151.11816	292.24969	278.03687	147.82039	156.66388	
790	7.890	276.16718	151.11761	292.24905	278.04642	147.81593	156.66489	
791	7.900	276.16864	151.11710	292.24893	278.05566	147.81120	156.66690	
792	7.910	276.16949	151.11662	292.24921	278.06400	147.80659	156.67009	
793	7.920	276.16986	151.11623	292.24969	278.07062	147.80254	156.67404	
794	7.930	276.16986	151.11589	292.25034	278.07532	147.79926	156.67804	
795	7.940	276.16968	151.11562	292.25104	278.07840	147.79684	156.68143	
796	7.950	276.16943	151.11540	292.25168	278.07983	147.79564	156.68369	
797	7.960	276.16925	151.11531	292.25201	278.07904	147.79610	156.68442	
798	7.970	276.16919	151.11540	292.25186	278.07599	147.79839	156.68369	
799	7.980	276.16934	151.11571	292.25113	278.07129	147.80212	156.68179	
800	7.990	276.16965	151.11618	292.25000	278.06573	147.80667	156.67917	
801	8.000	276.16995	151.11670	292.24869	278.05991	147.81134	156.67633	
802	8.010	276.17020	151.11716	292.24756	278.05441	147.81546	156.67398	
803	8.020	276.17029	151.11749	292.24683	278.05014	147.81845	156.67264	
804	8.030	276.17010	151.11769	292.24658	278.04764	147.82004	156.67245	
805	8.040	276.16971	151.11774	292.24680	278.04715	147.82010	156.67313	
806	8.050	276.16910	151.11761	292.24750	278.04880	147.81862	156.67433	
807	8.060	276.16840	151.11737	292.24854	278.05249	147.81575	156.67578	
808	8.070	276.16776	151.11703	292.24969	278.05746	147.81203	156.67737	
809	8.080	276.16739	151.11664	292.25073	278.06271	147.80817	156.67908	
810	8.090	276.16739	151.11626	292.25150	278.06763	147.80472	156.68085	
811	8.100	276.16760	151.11597	292.25195	278.07202	147.80193	156.68265	
812	8.110	276.16782	151.11581	292.25208	278.07535	147.80019	156.68430	
813	8.120	276.16788	151.11588	292.25192	278.07639	147.80009	156.68542	
814	8.130	276.16766	151.11618	292.25150	278.07407	147.80212	156.68562	
815	8.140	276.16708	151.11676	292.25079	278.06848	147.80606	156.68475	
816	8.150	276.16620	151.11754	292.24997	278.06091	147.81117	156.68298	
817	8.160	276.16507	151.11841	292.24915	278.05267	147.81677	156.68054	
818	8.170	276.16394	151.11916	292.24854	278.04465	147.82234	156.67758	
819	8.180	276.16318	151.11963	292.24823	278.03738	147.82744	156.67419	
820	8.190	276.16290	151.11977	292.24817	278.03171	147.83157	156.67053	
821	8.200	276.16287	151.11966	292.24844	278.02829	147.83421	156.66675	
822	8.210	276.16272	151.11942	292.24902	278.02750	147.83495	156.66312	
823	8.220	276.16241	151.11913	292.24982	278.02936	147.83362	156.66003	
824	8.230	276.16208	151.11882	292.25070	278.03342	147.83052	156.65790	
825	8.240	276.16187	151.11848	292.25153	278.03885	147.82631	156.65704	
826	8.250	276.16187	151.11816	292.25220	278.04477	147.82169	156.65781	
827	8.260	276.16220	151.11783	292.25256	278.05038	147.81725	156.65994	
828	8.270	276.16290	151.11748	292.25272	278.05502	147.81357	156.66266	
829	8.280	276.16376	151.11714	292.25269	278.05804	147.81114	156.66490	
830	8.290	276.16461	151.11690	292.25250	278.05887	147.81029	156.66609	
831	8.300	276.16537	151.11679	292.25214	278.05731	147.81093	156.66632	
832	8.310	276.16608	151.11682	292.25150	278.05374	147.81270	156.66608	
